<svg width="254" height="79" viewBox="0 0 254 79" fill="none" xmlns="http://www.w3.org/2000/svg">
<path d="M2 24.6903C2.40369 29.3317 7.85297 32.5749 15.9311 33.2328C22.538 33.7709 30.7171 33.8107 37.2921 33.1357C44.9555 32.349 50.7977 30.2004 57.3867 27.9908C59.8218 27.1742 62.2803 26.4071 64.69 25.5639C65.9562 25.1209 70.3517 24.6903 68.8693 24.6903C66.365 24.6903 63.4291 24.7877 62.0304 26.1949C60.2203 28.0159 54.4284 30.4687 50.9699 30.8302C49.1857 31.0167 43.6373 31.2272 42.4424 31.7767C40.7484 32.5557 37.9518 31.981 35.8568 32.7474C35.1846 32.9933 33.1481 32.8098 32.8173 33.1357C31.8467 34.0923 32.42 35.88 32.3529 36.9216C32.2266 38.8827 31.8058 40.834 31.6353 42.7946C31.1317 48.5847 30.8754 54.35 30.8754 60.1466C30.8754 61.2419 29.5961 65.7946 31.2131 66.6263C38.5181 70.3837 58.0333 60.8236 51.6454 58.3265C44.8621 55.6748 44.5532 64.492 44.5532 66.6263C44.5532 68.4427 47.9284 67.9368 50.2523 67.9368C54.1115 67.9368 55.7128 67.2597 58.3999 65.6556C60.5129 64.3941 65.6489 61.7892 65.8298 60.0738C66.045 58.0323 70.4531 58.4705 71.5289 59.8311C72.1561 60.6244 73.4584 60.8011 71.5289 60.9717C68.9008 61.2042 68.4908 62.7642 66.5897 63.4714C65.6159 63.8336 65.8298 64.238 65.8298 64.879C65.8298 66.0896 67.4284 65.7526 69.207 65.7526C71.2997 65.7526 74.1884 63.8047 74.1884 62.5977C74.1884 59.8166 73.372 60.2551 74.2307 62.4764C75.462 65.6617 86.1196 64.6181 88.9639 63.1316C92.2995 61.3884 93.6794 63.553 94.5363 64.976C94.995 65.7378 95.465 66.2309 95.465 67.0631C95.465 68.5224 97.0899 65.5012 97.3647 65.0974C98.4514 63.501 100.722 61.0494 104.584 62.355C106.666 63.0593 103.72 68.7406 108.299 65.1216C110.362 63.4903 112.196 62.6266 114.04 64.879C114.869 65.8923 115.88 69.9911 117.924 68.7377C119.848 67.5576 133.107 53.2744 135.148 55.2686C137.151 57.2262 130.12 55.3282 129.702 56.4093C128.795 58.7544 129.66 61.7706 129.66 64.1995C129.66 68.4423 134.219 60.9268 134.219 59.2972C134.219 59.0093 133.874 56.7568 134.388 56.6762C137.016 56.2641 139.108 66.5516 139.496 67.5728C140.026 68.9688 139.635 71.4228 142.366 72.0625C149.621 73.7615 154.369 71.4976 158.366 67.9368C174.292 53.7487 174.035 36.7943 167.907 20.7588C165.681 14.9356 161.945 6.01532 152.118 2.50884C148.347 1.16331 147.268 2.44083 147.179 4.52313C146.636 17.1688 144.961 30.2502 147.474 42.8431C148.797 49.4663 151.805 56.2901 155.327 62.6463C156.706 65.1358 158.837 67.88 159.253 70.5093C159.449 71.7535 159.061 72.6001 159.337 70.7762C159.695 68.4097 161.471 65.9911 164.783 64.5392C166.515 63.7796 171.925 59.8598 174.915 61.5784C176.914 62.7281 176.012 65.5959 176.012 67.0631C176.012 68.765 174.914 71.3575 178.461 72.111C184.484 73.3907 188.17 71.8022 188.17 68.3736C188.17 66.1007 186.135 65.7526 182.26 65.7526C179.361 65.7526 180.571 68.5718 180.571 69.8783C180.571 71.9801 194.02 72.5028 197.458 72.3051C200.7 72.1187 202.486 69.8265 204.297 68.5678C204.887 68.1571 207.476 65.8939 208.391 65.7769C214.321 65.0194 209.087 66.7547 207.969 67.7184C206.728 68.7884 207.167 70.1975 207.167 71.4315C207.167 73.3656 210.207 71.7883 210.207 70.3394C210.207 68.255 210.493 67.7926 211.558 69.7812C212.611 71.7494 213.747 72.8939 215.526 74.6835C217.656 76.8268 220.432 74.1956 221.605 73.2759C223.863 71.506 224.986 67.9368 229.626 67.9368C233.748 67.9368 229.674 67.5907 228.613 68.8105C227.076 70.5771 227.684 72.7152 227.684 74.6592C227.684 78.4129 235.916 76.9864 237.562 74.4893C242.585 66.8693 237.268 58.439 233.256 51.143C229.113 43.6078 223.469 36.3541 216.328 29.5925C215.959 29.2435 211.287 24.8019 211.009 27.0443C210.374 32.1542 213.239 36.9393 216.708 41.5326C223.913 51.0746 229.148 61.2131 239.673 69.6841C243.561 72.8135 243.968 76.2366 252 76.2366" stroke="black" stroke-width="3" stroke-linecap="round"/>
</svg>
