<svg width="304" height="104" viewBox="0 0 304 104" fill="none" xmlns="http://www.w3.org/2000/svg">
<path d="M2 32.2685C2.48442 38.457 9.02357 42.7814 18.7173 43.6586C26.6456 44.376 36.4606 44.4291 44.3506 43.5291C53.5466 42.4802 60.5572 39.6153 68.464 36.6692C71.3861 35.5805 74.3364 34.5577 77.228 33.4334C78.7474 32.8427 84.022 32.2685 82.2432 32.2685C79.238 32.2685 75.715 32.3985 74.0365 34.2747C71.8644 36.7027 64.9141 39.9731 60.7639 40.4551C58.6228 40.7038 51.9648 40.9844 50.5309 41.7171C48.4981 42.7558 45.1421 41.9895 42.6282 43.0114C41.8215 43.3393 39.3777 43.0945 38.9808 43.5291C37.816 44.8045 38.504 47.1882 38.4235 48.577C38.2719 51.1918 37.7669 53.7935 37.5623 56.4076C36.958 64.1278 36.6505 71.8149 36.6505 79.5436C36.6505 81.004 35.1153 87.0743 37.0557 88.1832C45.8217 93.1931 69.2399 80.4463 61.5745 77.1168C53.4345 73.5812 53.0638 85.3375 53.0638 88.1832C53.0638 90.6051 57.1141 89.9306 59.9027 89.9306C64.5338 89.9306 66.4553 89.0278 69.6798 86.8889C72.2154 85.207 78.3787 81.7338 78.5957 79.4466C78.854 76.7246 84.1437 77.3089 85.4346 79.123C86.1874 80.1807 87.7501 80.4163 85.4346 80.6438C82.281 80.9537 81.7889 83.0338 79.5076 83.9767C78.339 84.4597 78.5957 84.9989 78.5957 85.8535C78.5957 87.4676 80.5141 87.0184 82.6484 87.0184C85.1597 87.0184 88.6261 84.4211 88.6261 82.8118C88.6261 79.1037 87.6464 79.6883 88.6768 82.65C90.1544 86.8971 102.944 85.5056 106.357 83.5237C110.359 81.1994 112.015 84.0855 113.044 85.9829C113.594 86.9985 114.158 87.656 114.158 88.7657C114.158 90.7113 116.108 86.6831 116.438 86.1447C117.742 84.0161 120.467 80.7473 125.1 82.4882C127.6 83.4273 124.064 91.0023 129.558 86.177C132.035 84.0019 134.235 82.8503 136.448 85.8535C137.443 87.2045 138.656 92.6696 141.108 90.9984C143.418 89.425 159.328 70.3806 161.777 73.0397C164.181 75.6498 155.744 73.1191 155.242 74.5605C154.154 77.6874 155.191 81.7089 155.191 84.9474C155.191 90.6046 160.663 80.5839 160.663 78.4111C160.663 78.0272 160.249 75.0239 160.865 74.9164C164.019 74.367 166.53 88.0836 166.995 89.4452C167.631 91.3066 167.162 94.5786 170.44 95.4314C179.145 97.6968 184.843 94.6784 189.639 89.9306C208.75 71.0131 208.443 48.4072 201.088 27.0265C198.417 19.2623 193.934 7.36859 182.142 2.69329C177.617 0.899252 176.322 2.6026 176.215 5.37901C175.563 22.24 173.553 39.6818 176.569 56.4724C178.156 65.3032 181.766 74.4017 185.992 82.8765C187.647 86.1959 190.204 89.8549 190.703 93.3605C190.939 95.0196 190.473 96.1483 190.804 93.7165C191.234 90.5611 193.366 87.3363 197.339 85.4004C199.418 84.3876 205.91 79.1613 209.497 81.4528C211.897 82.9856 210.815 86.8093 210.815 88.7657C210.815 91.0348 209.497 94.4915 213.753 95.4962C220.981 97.2024 225.404 95.0845 225.404 90.513C225.404 87.4825 222.962 87.0184 218.312 87.0184C214.834 87.0184 216.286 90.7772 216.286 92.5192C216.286 95.3216 232.424 96.0185 236.549 95.755C240.44 95.5065 242.583 92.4502 244.756 90.7719C245.465 90.2243 248.571 87.2067 249.67 87.0507C256.785 86.0407 250.504 88.3545 249.163 89.6394C247.674 91.066 248.201 92.9448 248.201 94.5901C248.201 97.169 251.848 95.0659 251.848 93.134C251.848 90.3549 252.192 89.7383 253.469 92.3898C254.733 95.014 256.096 96.5401 258.231 98.9261C260.788 101.784 264.118 98.2756 265.526 97.0493C268.235 94.6895 269.583 89.9306 275.151 89.9306C280.097 89.9306 275.208 89.4691 273.935 91.0955C272.091 93.4509 272.821 96.3018 272.821 98.8938C272.821 103.899 282.7 101.997 284.675 98.6672C290.702 88.5073 284.322 77.2668 279.508 67.5388C274.536 57.4919 267.763 47.8203 259.193 38.8049C258.751 38.3395 253.145 32.4174 252.811 35.4073C252.049 42.2205 255.487 48.6006 259.649 54.725C268.296 67.4477 274.577 80.9656 287.208 92.2604C291.874 96.4328 292.362 100.997 302 100.997" stroke="black" stroke-width="3" stroke-linecap="round"/>
</svg>
