<svg width="inherit" height="inherit" viewBox="0 0 120 120" fill="none"
    xmlns="http://www.w3.org/2000/svg">
    <path d="M52.67 3.30547C56.6225 -0.923594 63.3291 -0.923597 67.2817 3.30547L75.2421 11.8227C77.2135 13.932 80.0003 15.0864 82.8857 14.9888L94.5372 14.5951C100.323 14.3996 105.065 19.1418 104.869 24.9271L104.476 36.5786C104.378 39.4641 105.532 42.2509 107.642 44.2222L116.159 52.1827C120.388 56.1352 120.388 62.8418 116.159 66.7944L107.642 74.7548C105.532 76.7262 104.378 79.513 104.476 82.3984L104.869 94.0499C105.065 99.8352 100.323 104.577 94.5372 104.382L82.8857 103.988C80.0003 103.891 77.2135 105.045 75.2421 107.154L67.2817 115.672C63.3291 119.901 56.6225 119.901 52.67 115.672L44.7095 107.154C42.7382 105.045 39.9514 103.891 37.0659 103.988L25.4144 104.382C19.6292 104.577 14.8869 99.8352 15.0824 94.0499L15.4761 82.3984C15.5737 79.513 14.4193 76.7262 12.3101 74.7548L3.79277 66.7944C-0.436289 62.8418 -0.436292 56.1352 3.79277 52.1827L12.3101 44.2222C14.4193 42.2509 15.5737 39.4641 15.4761 36.5786L15.0824 24.9271C14.8869 19.1418 19.6292 14.3996 25.4144 14.5951L37.0659 14.9888C39.9514 15.0864 42.7382 13.932 44.7095 11.8227L52.67 3.30547Z" fill="url(#paint0_linear_16_3)"/>
    <defs>
        <linearGradient id="paint0_linear_16_3" x1="59.9758" y1="-4.51147" x2="59.9758" y2="123.489" gradientUnits="userSpaceOnUse">
            <stop stop-color="#e9c47e"/>
            <stop offset="1" stop-color="#e9c47e"/>
        </linearGradient>
    </defs>
</svg>
